<svg width="693" height="116" viewBox="0 0 693 116" fill="none" xmlns="http://www.w3.org/2000/svg">
<g filter="url(#filter0_d)">
<path d="M86.6172 13.7344H53.7109V105H40.2812V13.7344H7.44531V2.625H86.6172V13.7344Z" stroke="white" stroke-width="5"/>
<path d="M180.484 105H166.914V57.6797H115.305V105H101.805V2.625H115.305V46.6406H166.914V2.625H180.484V105Z" stroke="white" stroke-width="5"/>
<path d="M262.258 78.2812H219.367L209.734 105H195.812L234.906 2.625H246.719L285.883 105H272.031L262.258 78.2812ZM223.445 67.1719H258.25L240.812 19.2891L223.445 67.1719Z" stroke="white" stroke-width="5"/>
<path d="M378.344 105H364.773L313.234 26.1094V105H299.664V2.625H313.234L364.914 81.8672V2.625H378.344V105Z" stroke="white" stroke-width="5"/>
<path d="M481 105H467.43V57.6797H415.82V105H402.32V2.625H415.82V46.6406H467.43V2.625H481V105Z" stroke="white" stroke-width="5"/>
<path d="M583.656 105H570.086L518.547 26.1094V105H504.977V2.625H518.547L570.227 81.8672V2.625H583.656V105Z" stroke="white" stroke-width="5"/>
<path d="M642.297 41.8594L666.836 2.625H682.727L650.383 53.3906L683.5 105H667.469L642.297 65.0625L616.984 105H601.023L634.211 53.3906L601.797 2.625H617.617L642.297 41.8594Z" stroke="white" stroke-width="5"/>
</g>
<defs>
<filter id="filter0_d" x="0.945312" y="0.125" width="691.129" height="115.375" filterUnits="userSpaceOnUse" color-interpolation-filters="sRGB">
<feFlood flood-opacity="0" result="BackgroundImageFix"/>
<feColorMatrix in="SourceAlpha" type="matrix" values="0 0 0 0 0 0 0 0 0 0 0 0 0 0 0 0 0 0 127 0"/>
<feOffset dy="4"/>
<feGaussianBlur stdDeviation="2"/>
<feColorMatrix type="matrix" values="0 0 0 0 0 0 0 0 0 0 0 0 0 0 0 0 0 0 0.25 0"/>
<feBlend mode="normal" in2="BackgroundImageFix" result="effect1_dropShadow"/>
<feBlend mode="normal" in="SourceGraphic" in2="effect1_dropShadow" result="shape"/>
</filter>
</defs>
</svg>
